HIERARCHY
ROOT root
{
	OFFSET 0.000000 0.000000 0.000000
	CHANNELS 6 Xposition Yposition Zposition Zrotation Yrotation Xrotation
	JOINT lhip
	{
		OFFSET 0.058581 -0.082280 -0.017664
		CHANNELS 3 Zrotation Yrotation Xrotation
		JOINT lknee
		{
			OFFSET 0.043451 -0.386469 0.008037
			CHANNELS 3 Zrotation Yrotation Xrotation
			JOINT lankle
			{
				OFFSET -0.014790 -0.426874 -0.037428
				CHANNELS 3 Zrotation Yrotation Xrotation
				JOINT ltoe
				{
					OFFSET 0.041054 -0.060286 0.122042
					CHANNELS 3 Zrotation Yrotation Xrotation
					End Site
					{
						OFFSET 0.000000 0.000000 0.000000
					}
				}
			}
		}
	}
	JOINT rhip
	{
		OFFSET -0.060310 -0.090513 -0.013543
		CHANNELS 3 Zrotation Yrotation Xrotation
		JOINT rknee
		{
			OFFSET -0.043257 -0.383688 -0.004843
			CHANNELS 3 Zrotation Yrotation Xrotation
			JOINT rankle
			{
				OFFSET 0.019056 -0.420046 -0.034562
				CHANNELS 3 Zrotation Yrotation Xrotation
				JOINT rtoe
				{
					OFFSET -0.034840 -0.062106 0.130323
					CHANNELS 3 Zrotation Yrotation Xrotation
					End Site
					{
						OFFSET 0.000000 0.000000 0.000000
					}
				}
			}
		}
	}
	JOINT lowerback
	{
		OFFSET 0.004439 0.124404 -0.038385
		CHANNELS 3 Zrotation Yrotation Xrotation
		JOINT upperback
		{
			OFFSET 0.004488 0.137956 0.026820
			CHANNELS 3 Zrotation Yrotation Xrotation
			JOINT chest
			{
				OFFSET -0.002265 0.056032 0.002855
				CHANNELS 3 Zrotation Yrotation Xrotation
				JOINT lowerneck
				{
					OFFSET -0.013390 0.211636 -0.033468
					CHANNELS 3 Zrotation Yrotation Xrotation
					JOINT upperneck
					{
						OFFSET 0.010113 0.088937 0.050410
						CHANNELS 3 Zrotation Yrotation Xrotation
						End Site
						{
							OFFSET 0.000000 0.000000 0.000000
						}
					}
				}
				JOINT lclavicle
				{
					OFFSET 0.071702 0.114000 -0.018898
					CHANNELS 3 Zrotation Yrotation Xrotation
					JOINT lshoulder
					{
						OFFSET 0.122921 0.045205 -0.019046
						CHANNELS 3 Zrotation Yrotation Xrotation
						JOINT lelbow
						{
							OFFSET 0.255332 -0.015649 -0.022946
							CHANNELS 3 Zrotation Yrotation Xrotation
							JOINT lwrist
							{
								OFFSET 0.265709 0.012698 -0.007375
								CHANNELS 3 Zrotation Yrotation Xrotation
								End Site
								{
									OFFSET 0.000000 0.000000 0.000000
								}
							}
						}
					}
				}
				JOINT rclavicle
				{
					OFFSET -0.082954 0.112472 -0.023707
					CHANNELS 3 Zrotation Yrotation Xrotation
					JOINT rshoulder
					{
						OFFSET -0.113228 0.046853 -0.008472
						CHANNELS 3 Zrotation Yrotation Xrotation
						JOINT relbow
						{
							OFFSET -0.260127 -0.014369 -0.031269
							CHANNELS 3 Zrotation Yrotation Xrotation
							JOINT rwrist
							{
								OFFSET -0.269108 0.006794 -0.006027
								CHANNELS 3 Zrotation Yrotation Xrotation
								End Site
								{
									OFFSET 0.000000 0.000000 0.000000
								}
							}
						}
					}
				}
			}
		}
	}
}
MOTION
Frames: 11
Frame Time: 0.033333
-1.010292 0.235513 1.005616 72.872999 0.889103 87.359276 -2.866428 -0.608614 4.247098 -1.179850 -0.928117 5.182143 5.707162 10.817833 -17.969107 0.000000 -0.000000 0.000000 -7.296245 -2.745102 -9.298069 0.693304 -5.418975 -0.774548 7.896669 -3.342057 -6.088921 0.000000 -0.000000 0.000000 -0.535122 -1.856462 2.337711 0.841507 -2.499134 6.729581 1.863759 -2.042949 -2.762196 -3.784711 -12.898364 6.351287 7.685786 -4.988675 -13.030939 -9.670996 0.770272 13.238678 -63.171519 -7.630335 15.554068 139.237457 -75.878638 -109.141784 22.171635 -18.950243 -31.977854 9.897662 4.983772 7.066373 63.306000 4.887229 5.795324 -13.066781 18.950348 -2.381622 16.884447 14.049744 -7.339678 
-1.003327 0.224936 1.005110 73.169833 1.047001 87.326719 -2.158733 -0.887345 4.972830 -0.997804 -1.067607 5.194773 4.934316 10.941783 -18.228316 0.000000 -0.000000 0.000000 -6.883098 -2.728747 -7.718037 0.996277 -6.439487 -3.015956 8.325763 -3.616409 -4.555275 0.000000 -0.000000 0.000000 0.026094 -1.853945 1.944540 0.775157 -2.686590 6.567156 1.711237 -2.021373 -2.824441 -4.028256 -12.224225 7.064011 7.522287 -5.049914 -12.998151 -9.700414 0.767098 13.529724 -63.335618 -7.444650 15.782257 140.015899 -76.068105 -109.078720 22.467735 -18.599644 -33.066671 10.216473 4.854294 7.129268 63.009446 4.737070 6.011944 -12.997650 19.240397 -1.136981 15.169826 14.354025 -9.289078 
-0.995998 0.213009 1.004805 73.354188 1.133910 87.225494 -1.422923 -0.655821 5.786350 -0.755374 -1.383742 5.336280 4.423804 10.864336 -18.684260 0.000000 -0.000000 0.000000 -6.669414 -3.177156 -6.706000 1.636419 -7.061689 -3.491331 8.803693 -3.668142 -3.593428 0.000000 -0.000000 0.000000 0.172612 -1.806938 1.367286 0.933839 -2.797075 6.651934 1.718654 -2.062587 -2.904718 -4.132235 -11.821905 7.141409 7.101747 -5.286940 -12.446744 -9.508908 0.789644 13.729358 -63.731968 -7.410747 15.899565 141.493755 -76.567555 -110.074195 22.670314 -18.400134 -33.611464 10.280344 4.706497 7.181890 62.877877 4.826922 5.990988 -12.842504 19.475106 -0.618406 14.348418 14.377314 -9.914488 
-0.987296 0.197068 1.005547 73.548933 1.611895 86.927656 -0.113600 -0.378310 6.938509 -0.296402 -1.811402 5.626001 3.578245 10.818360 -19.240819 0.000000 -0.000000 0.000000 -5.744332 -2.886712 -5.663909 2.196811 -7.089448 -2.962672 8.219105 -3.533924 -3.806028 0.000000 -0.000000 0.000000 0.600911 -1.931348 0.960263 1.273066 -2.834880 6.723620 1.796335 -2.140615 -3.130879 -4.179722 -11.353580 7.055599 6.451640 -5.588704 -11.506624 -9.543777 0.551407 13.877772 -64.357403 -7.147088 16.117932 143.067292 -76.900949 -111.357102 22.622913 -18.243722 -34.081040 10.374038 4.862769 7.276561 62.648926 4.908781 5.884801 -12.797961 19.772949 -0.258312 13.428226 14.474545 -10.716766 
-0.982564 0.187179 1.006414 73.714700 1.948365 86.717899 0.734699 -0.392215 7.566030 -0.009683 -1.951567 5.944527 2.963084 10.823981 -19.563266 0.000000 -0.000000 0.000000 -4.954420 -2.230823 -5.013394 2.318302 -7.000708 -2.616861 7.503268 -3.835833 -4.304896 0.000000 -0.000000 0.000000 0.824268 -2.128406 0.841983 1.510954 -2.904890 6.691669 1.847550 -2.126792 -3.211899 -4.149847 -11.065534 6.869060 6.090145 -5.742543 -10.836251 -9.447637 0.414438 13.906804 -64.886308 -7.117658 16.309353 144.117041 -77.004758 -112.245638 22.370733 -18.132184 -34.434935 10.384809 4.950300 7.231320 62.585526 4.968424 5.967021 -12.837305 20.041728 -0.004126 12.924848 14.482405 -11.258344 
-0.976539 0.173825 1.007559 74.081382 2.243234 86.420411 1.819642 -0.418850 8.276579 0.265342 -2.031867 6.573042 1.979676 10.571971 -19.927465 0.000000 -0.000000 0.000000 -4.051946 -1.503852 -3.924411 2.495401 -7.337283 -2.483255 6.783692 -4.120051 -5.084574 0.000000 -0.000000 0.000000 0.908052 -2.321293 0.814335 1.799728 -3.093704 6.568220 1.951760 -2.213035 -3.367497 -4.048872 -10.584910 6.671549 5.636087 -6.026876 -9.915477 -9.226256 0.112600 13.987949 -65.544640 -7.189649 16.570040 145.745153 -77.018866 -113.548603 22.045270 -18.181911 -34.931505 10.290856 5.063163 7.191902 62.685294 4.995847 6.086351 -12.952132 20.566476 0.370770 12.084990 14.569149 -12.165499 
-0.971133 0.160252 1.008408 74.688635 2.421348 86.105320 3.048677 -0.178165 8.661403 0.312827 -2.156930 7.626279 0.860949 9.875383 -20.184526 0.000000 -0.000000 0.000000 -3.249493 -1.448631 -2.640918 2.777675 -7.732638 -2.674196 6.236017 -3.953721 -5.866349 0.000000 -0.000000 0.000000 0.815880 -2.444594 0.930788 2.013745 -3.465097 6.407278 2.086509 -2.398145 -3.510634 -3.969774 -10.089095 6.421535 5.317816 -6.323545 -9.020057 -9.076518 -0.313878 13.996192 -65.971387 -7.372444 16.688829 147.402664 -76.905209 -114.809873 21.780804 -18.286932 -35.377272 10.217728 5.214271 7.135359 62.823327 5.014023 6.068073 -13.018937 21.259245 0.825913 11.312706 14.677973 -13.080147 
-0.966227 0.146968 1.009160 75.467389 2.448385 85.788728 4.248287 0.104917 8.782618 0.179495 -2.282437 8.968179 -0.289443 8.990666 -20.275923 0.000000 -0.000000 0.000000 -2.604665 -1.601951 -1.336773 3.047273 -8.014956 -2.954373 5.740542 -3.830439 -6.634095 0.000000 -0.000000 0.000000 0.653716 -2.536193 1.122829 2.127973 -3.886467 6.255934 2.157614 -2.616098 -3.656085 -3.970047 -9.673596 6.144607 5.093565 -6.619605 -8.207154 -9.042038 -0.766521 13.936922 -66.154242 -7.740804 16.718223 148.472436 -76.849139 -115.452897 21.458721 -18.475121 -35.665417 10.209361 5.287356 7.057083 62.880637 4.953526 6.031187 -12.974997 22.153330 1.492390 10.594313 14.742652 -13.927657 
-0.961766 0.134152 1.009813 76.124477 2.399282 85.588390 5.353419 0.257768 8.583359 -0.069910 -2.347736 10.608650 -1.398903 8.176307 -20.233864 0.000000 -0.000000 0.000000 -2.061050 -1.664926 -0.198394 3.377582 -8.199985 -3.316750 5.237634 -3.750215 -7.338379 0.000000 -0.000000 0.000000 0.556600 -2.541278 1.228907 2.168101 -4.192672 6.026173 2.137431 -2.761244 -3.741104 -4.071003 -9.418319 5.949644 4.865919 -6.930410 -7.458052 -9.065275 -1.201171 13.864650 -66.307433 -8.165821 16.690240 148.561782 -76.863456 -115.019051 21.076172 -18.802192 -35.525616 10.148031 5.370722 7.042456 62.976296 4.869209 5.947423 -12.931216 22.892246 2.232491 10.083685 14.843478 -14.739018 
-0.956873 0.118822 1.010435 76.667197 2.266184 85.435592 6.541669 0.156016 7.956057 -0.475910 -2.497904 13.124019 -2.683154 7.483017 -20.061658 0.000000 -0.000000 0.000000 -1.378910 -1.713305 0.917230 3.670699 -8.274544 -3.644661 4.571245 -3.631165 -8.094969 0.000000 -0.000000 0.000000 0.469029 -2.417202 1.331568 2.162822 -4.380322 5.767553 2.056813 -2.834029 -3.828722 -4.247076 -9.155718 5.561698 4.553013 -7.333412 -6.475257 -9.072674 -1.559621 13.714801 -66.679458 -8.593402 16.670119 147.975116 -76.809020 -113.761055 20.820392 -19.077711 -35.374674 10.064141 5.518946 7.076490 62.996150 4.815395 5.840128 -12.797572 23.431302 3.252638 9.587413 14.964039 -15.661300 
-0.953573 0.107120 1.010823 76.982422 2.083702 85.291030 7.270559 -0.243677 7.217243 -0.833068 -2.693515 15.569283 -3.611794 7.206778 -19.810897 0.000000 -0.000000 0.000000 -0.853210 -1.626946 1.665723 3.793382 -8.329992 -3.786655 3.907389 -3.683667 -8.515683 0.000000 -0.000000 0.000000 0.336612 -2.279571 1.521377 2.130658 -4.455389 5.557092 1.993901 -2.826820 -3.810903 -4.407932 -9.030492 5.193995 4.338887 -7.623358 -5.827617 -9.087990 -1.726881 13.595374 -67.088541 -8.746555 16.743453 147.031760 -76.557419 -112.583538 20.794455 -18.979131 -35.557407 10.029845 5.709525 7.089996 62.939124 4.842900 5.820016 -12.773780 23.537696 3.867554 9.201038 14.942360 -16.104347 
